<svg xmlns="http://www.w3.org/2000/svg" width="171" height="145.5" viewBox="0 0 171 145.5">
  <g id="Group_170" data-name="Group 170" transform="translate(-424.149 287.096)">
    <path id="Path_247" data-name="Path 247" d="M591.973-160.87a106.922,106.922,0,0,1-18.175,9.865,106.5,106.5,0,0,1-20.084,6.235,107.83,107.83,0,0,1-21.565,2.174,107.839,107.839,0,0,1-21.566-2.174,106.488,106.488,0,0,1-20.083-6.235,106.921,106.921,0,0,1-18.175-9.865,107.786,107.786,0,0,1-15.837-13.066,107.779,107.779,0,0,1-13.066-15.836,106.968,106.968,0,0,1-9.865-18.176,106.389,106.389,0,0,1-6.234-20.083,107.757,107.757,0,0,1-2.174-21.565,107.759,107.759,0,0,1,2.174-21.566,106.307,106.307,0,0,1,4.4-15.434h-1.067a107.778,107.778,0,0,0-6.506,37,108,108,0,0,0,108,108,107.509,107.509,0,0,0,62.5-19.912v-1.265C593.76-162.132,592.879-161.482,591.973-160.87Z" fill="#fff"/>
    <path id="Path_248" data-name="Path 248" d="M431.912-287.1h-1.071c-.062.166-.125.332-.186.5h1.067C431.784-286.764,431.849-286.929,431.912-287.1Z" fill="#fff"/>
    <path id="Path_249" data-name="Path 249" d="M595.149-163.129c-.166.121-.334.236-.5.356v1.265c.168-.12.332-.244.5-.364Z" fill="#fff"/>
  </g>
</svg>
