<svg xmlns="http://www.w3.org/2000/svg" xmlns:xlink="http://www.w3.org/1999/xlink" width="181.062" height="55.318" viewBox="0 0 181.062 55.318">
  <defs>
    <linearGradient id="linear-gradient" x1="-6.643" y1="-0.686" x2="0.878" y2="0.578" gradientUnits="objectBoundingBox">
      <stop offset="0" stop-color="#78532e"/>
      <stop offset="0.5" stop-color="#feaf6c"/>
      <stop offset="1" stop-color="#78532e"/>
    </linearGradient>
    <linearGradient id="linear-gradient-2" x1="-3.991" y1="-0.577" x2="1.244" y2="0.743" xlink:href="#linear-gradient"/>
    <linearGradient id="linear-gradient-3" x1="-2.987" y1="-0.072" x2="4.533" y2="1.193" xlink:href="#linear-gradient"/>
    <linearGradient id="linear-gradient-4" x1="-1.447" y1="0.065" x2="3.788" y2="1.384" xlink:href="#linear-gradient"/>
    <linearGradient id="linear-gradient-5" x1="-10.605" y1="-1.482" x2="6.021" y2="1.389" xlink:href="#linear-gradient"/>
    <linearGradient id="linear-gradient-6" x1="-9.867" y1="-1.227" x2="6.758" y2="1.645" xlink:href="#linear-gradient"/>
    <linearGradient id="linear-gradient-7" x1="-4.06" y1="-1.043" x2="2.952" y2="1.33" xlink:href="#linear-gradient"/>
    <linearGradient id="linear-gradient-8" x1="-3.851" y1="-1.112" x2="2.926" y2="1.399" xlink:href="#linear-gradient"/>
    <linearGradient id="linear-gradient-9" x1="-2.432" y1="-0.071" x2="14.193" y2="2.801" xlink:href="#linear-gradient"/>
    <linearGradient id="linear-gradient-10" x1="-2.672" y1="-0.423" x2="11.683" y2="3.754" xlink:href="#linear-gradient"/>
    <linearGradient id="linear-gradient-11" x1="-0.247" y1="0.337" x2="8.522" y2="1.586" xlink:href="#linear-gradient"/>
    <linearGradient id="linear-gradient-12" x1="-2.791" y1="-0.434" x2="28.853" y2="8.402" xlink:href="#linear-gradient"/>
    <linearGradient id="linear-gradient-13" x1="-7.271" y1="-1.832" x2="22.176" y2="7.005" xlink:href="#linear-gradient"/>
    <linearGradient id="linear-gradient-14" x1="-14.425" y1="-3.375" x2="20.679" y2="5.739" xlink:href="#linear-gradient"/>
    <linearGradient id="linear-gradient-15" x1="-18.019" y1="-4.687" x2="13.625" y2="4.15" xlink:href="#linear-gradient"/>
    <linearGradient id="linear-gradient-16" x1="-31.382" y1="-6.256" x2="11.625" y2="2.858" xlink:href="#linear-gradient"/>
    <linearGradient id="linear-gradient-17" x1="-35.959" y1="-7.628" x2="4.715" y2="1.486" xlink:href="#linear-gradient"/>
    <linearGradient id="linear-gradient-18" x1="-38.877" y1="-9.105" x2="-1.328" y2="0.009" xlink:href="#linear-gradient"/>
  </defs>
  <g id="Group_151" data-name="Group 151" transform="translate(-249.284 -245.299)">
    <path id="Path_173" data-name="Path 173" d="M572.079,287.35q-.528-.093-1.057-.182c-.81-.138-1.648-.281-2.463-.449a3.3,3.3,0,0,1-1.866-.959,4.856,4.856,0,0,1-.919-1.68q-1.132-3.166-2.247-6.338l-.282-.8q-2.636-7.467-5.27-14.936c-1.763-5-5.387-15.3-5.387-15.3a.924.924,0,0,0-1.22-.545l-.247.075,0,0-1.2.342.086.261c.017.053.872,2.471,2.266,6.411l11.135,31.531q.521,1.479,1.047,2.958c.012.034.128.338.378.368a2.706,2.706,0,0,0,.316.016l.179,0,.56,0-.035-.1a.546.546,0,0,0,.418.188c1.336.082,2.672.175,4.008.27.426.03.85.066,1.279.1l.871.072V287.4Z" transform="translate(-142.088 -0.38)" fill="url(#linear-gradient)"/>
    <path id="Path_174" data-name="Path 174" d="M531.893,269.737q-3.519-9.986-7.044-19.965l-.083-.234-1.176.336.081.258c.008.025.1.3.244.7.256.73.656,1.867.888,2.545a.45.45,0,0,1,.009.257c-.982,2.789-3.753,10.621-6.1,17.239-1.453,4.11-2.742,7.751-3.334,9.425a22.206,22.206,0,0,1-2.244,4.878,7.769,7.769,0,0,1-3.815,3.21c-.547.2-1.108.349-1.7.506-.272.072-.545.143-.818.221l-.192.054v1.141l.3-.048a42.348,42.348,0,0,1,13.183-.009l.3.048v-1.214l-.3-.07c-.051-.012-.1-.022-.149-.037-.2-.062-.4-.12-.607-.178a11.3,11.3,0,0,1-1.322-.435,3.547,3.547,0,0,1-2.325-3.432,9.8,9.8,0,0,1,.385-2.874l.072-.282c.41-1.628,1.661-6.581,5.555-8.537,2.43-1.221,7.069-.428,8.815-.13l.426.073-.131-.413c-.068-.214-.142-.425-.23-.632l-.06-.14-.152-.018c-4.2-.515-6.888-1.679-8-3.461a4.289,4.289,0,0,1-.217-3.756q1.229-3.518,2.485-7.026l.85-2.391,2.012,5.678c2.872,8.1,7.211,20.35,8.162,23.065.291.83.541,1.675.745,2.513a.959.959,0,0,1-.607,1.2,3,3,0,0,1-.32.141,16.311,16.311,0,0,1-2.932.684l-.632.109c-.364.065-.73.123-1.1.182l-.745.121v1.243l8.857-.541-.117-.33Q535.367,279.607,531.893,269.737Z" transform="translate(-121.617 -2.003)" fill="url(#linear-gradient-2)"/>
    <path id="Path_175" data-name="Path 175" d="M400.646,287.4l-.355-.055c-.352-.062-.7-.122-1.057-.182-.81-.138-1.648-.281-2.463-.449a3.294,3.294,0,0,1-1.866-.959,4.848,4.848,0,0,1-.919-1.68q-1.156-3.232-2.294-6.47l-.235-.666q-2.637-7.467-5.27-14.936c-1.762-5-5.385-15.3-5.387-15.3a.923.923,0,0,0-1.22-.545l-.247.075,0,0-1.2.342.087.261c.017.051.795,2.251,2.168,6.135l11.234,31.81q.521,1.479,1.046,2.955c.013.034.127.338.378.368a2.712,2.712,0,0,0,.316.016l.179,0,.561,0-.035-.1a.546.546,0,0,0,.418.187c1.336.082,2.672.175,4.008.27.425.03.851.066,1.281.1l.87.072Z" transform="translate(-60.898 -0.379)" fill="url(#linear-gradient-3)"/>
    <path id="Path_176" data-name="Path 176" d="M360.054,269.592q-3.493-9.914-6.993-19.82l-.083-.234-1.177.336.082.259c.008.025.1.293.237.677.256.729.661,1.88.894,2.563a.452.452,0,0,1,.009.258c-.973,2.765-3.7,10.485-6.033,17.066-1.479,4.18-2.8,7.9-3.4,9.6a22.2,22.2,0,0,1-2.244,4.878,7.769,7.769,0,0,1-3.815,3.21c-.547.2-1.108.35-1.7.506-.272.072-.544.143-.819.221l-.191.054v1.141l.3-.048a42.342,42.342,0,0,1,13.182-.009l.305.048v-1.214l-.3-.07c-.052-.012-.1-.022-.15-.037-.2-.062-.4-.12-.608-.178a11.354,11.354,0,0,1-1.321-.435,3.547,3.547,0,0,1-2.325-3.432,9.8,9.8,0,0,1,.385-2.874l.072-.282c.411-1.628,1.661-6.581,5.555-8.537,2.43-1.221,7.069-.428,8.815-.13l.426.073-.13-.412c-.068-.214-.143-.425-.23-.632l-.06-.14-.151-.018c-4.2-.515-6.888-1.679-8-3.461a4.287,4.287,0,0,1-.217-3.756q1.243-3.558,2.514-7.106l.821-2.31,2.152,6.074c2.991,8.439,7.086,20,8.023,22.668.292.833.542,1.678.745,2.513a.961.961,0,0,1-.607,1.2,2.892,2.892,0,0,1-.32.141,16.278,16.278,0,0,1-2.931.684l-.633.109c-.364.065-.73.123-1.1.182l-.746.121v1.243l8.857-.541-.117-.33Q363.553,279.535,360.054,269.592Z" transform="translate(-40.428 -2.003)" fill="url(#linear-gradient-4)"/>
    <path id="Path_177" data-name="Path 177" d="M480.679,263.4l-.188-1.985c-.127-1.326-.253-2.653-.372-3.981a52.859,52.859,0,0,1-.248-7.129,19.258,19.258,0,0,1,.453-3.6c.161-.67.112-.785-.489-1.12l-.289-.053-.247.3c-.108.133-.217.267-.333.4a3.049,3.049,0,0,1-2.333,1.106,4.994,4.994,0,0,1-1.814-.359c-.51-.191-1.75-.7-2.746-1.1-.484-.2-.908-.37-1.158-.47l-.215-.086-.17.3.037.111c.04.118.119.153.277.223,2.547,1.125,8.48,5.094,8.557,17.612a.5.5,0,0,0,.387.463,2.2,2.2,0,0,0,.3.017l.174,0,.452,0-.018-.395C480.69,263.553,480.686,263.475,480.679,263.4Z" transform="translate(-104.565 -0.006)" fill="url(#linear-gradient-5)"/>
    <path id="Path_178" data-name="Path 178" d="M448.464,310c-2.547-1.126-8.48-5.1-8.556-17.612a.5.5,0,0,0-.387-.463,2.991,2.991,0,0,0-.474-.015l-.452,0,.021.408c0,.083.006.157.013.231l.193,2.033q.188,1.967.369,3.933a52.7,52.7,0,0,1,.247,7.129,19.258,19.258,0,0,1-.452,3.6c-.162.67-.112.784.486,1.118l.294.053.247-.3c.108-.132.216-.266.331-.393a3.049,3.049,0,0,1,2.333-1.106,5.083,5.083,0,0,1,1.814.358c.513.193,1.758.7,2.76,1.11.478.2.9.365,1.144.465l.215.087.169-.306-.036-.11C448.7,310.1,448.622,310.069,448.464,310Z" transform="translate(-89.471 -22.027)" fill="url(#linear-gradient-6)"/>
    <path id="Path_179" data-name="Path 179" d="M466.553,277.568a10.723,10.723,0,0,0-4.212-3.737h0c-.827-.422-1.73-.846-2.841-1.335-1.517-.668-3.1-1.224-4.634-1.761l-.628-.22c-1.44-.507-3.134-1.128-4.778-1.876a9.731,9.731,0,0,1-1.714-.986,7.2,7.2,0,0,1-2.58-3.374,8.821,8.821,0,0,1-.512-2.893l-.525-.033a10.778,10.778,0,0,0,.125,3.605,7.1,7.1,0,0,0,2.627,4.18,11.689,11.689,0,0,0,2.487,1.459c1.857.84,3.8,1.524,5.686,2.186l.585.206a47.277,47.277,0,0,1,6.487,2.745,10.351,10.351,0,0,1,4.688,4.85,9.053,9.053,0,0,1,.8,3.43l.527.009a10.872,10.872,0,0,0-.02-1.878A10.191,10.191,0,0,0,466.553,277.568Z" transform="translate(-92.042 -7.587)" fill="url(#linear-gradient-7)"/>
    <path id="Path_180" data-name="Path 180" d="M460.493,282.522a16.049,16.049,0,0,0-4.2-2.378c-1.736-.689-3.512-1.362-5.23-2.012q-1.275-.483-2.548-.969c-.282-.108-.566-.214-.849-.319a23.464,23.464,0,0,1-3.316-1.432,11.136,11.136,0,0,1-3.464-2.909,8.039,8.039,0,0,1-1.732-4.592l-.527,0a13.177,13.177,0,0,0,.237,3,10.277,10.277,0,0,0,1.406,3.634,6.918,6.918,0,0,0,2.639,2.476c.4.208.848.444,1.312.64.878.369,1.671.7,2.5,1,1.186.426,2.376.842,3.566,1.257q1.33.464,2.657.933a45.136,45.136,0,0,1,4.568,1.852,12.945,12.945,0,0,1,2.9,1.852,7.9,7.9,0,0,1,1.99,2.5,6.507,6.507,0,0,1,.652,2.286l.526-.007A7.756,7.756,0,0,0,460.493,282.522Z" transform="translate(-89.485 -10.686)" fill="url(#linear-gradient-8)"/>
    <path id="Path_181" data-name="Path 181" d="M297.117,245.938c2.547,1.125,8.48,5.093,8.557,17.612a.5.5,0,0,0,.387.463,2.221,2.221,0,0,0,.3.017l.173,0,.452,0-.02-.4c0-.086-.006-.162-.014-.238l-.191-2.012c-.126-1.318-.252-2.635-.37-3.954a52.619,52.619,0,0,1-.247-7.129,19.23,19.23,0,0,1,.451-3.6c.162-.67.112-.785-.484-1.117l-.293-.057-.249.3c-.108.133-.216.266-.331.394a3.049,3.049,0,0,1-2.333,1.106,5.2,5.2,0,0,1-1.813-.359c-.508-.191-1.741-.694-2.732-1.1-.489-.2-.919-.375-1.173-.477l-.215-.086-.17.305.037.111C296.879,245.833,296.959,245.868,297.117,245.938Z" transform="translate(-22.458)" fill="url(#linear-gradient-9)"/>
    <path id="Path_182" data-name="Path 182" d="M304.16,315.46l.107.114.14,0,.11-.016c.386-.127.562-.184.648-.371a.648.648,0,0,0-.072-.539,7.825,7.825,0,0,1-.511-2.387,20.8,20.8,0,0,1,.284-4.78c.138-.9.285-1.8.432-2.7l.217-1.332c.008-.055.013-.11.017-.172l.032-.371-.493,0c-.181,0-.354,0-.523.009s-.431.175-.427.4c.051,2.833-.769,9.543-9.306,11.676l-.419.1-.147.032c-.186.04-.3.065-.344.217l-.133.439.446-.1.352-.083.1-.023.876-.209c1.149-.274,2.6-.619,3.193-.75.063-.014.148-.035.25-.061C300.036,314.284,302.831,313.577,304.16,315.46Z" transform="translate(-21.025 -27.224)" fill="url(#linear-gradient-10)"/>
    <path id="Path_183" data-name="Path 183" d="M253.361,267.837c-.176-8.452,3.748-18.368,12.9-21.464.272-.076.547-.141.822-.206l1.436-.351-1.051-.254a1.212,1.212,0,0,0-.484-.033c-.178.028-.358.053-.537.079-.483.069-.982.141-1.469.255a19.475,19.475,0,0,0-12.259,8.6,21.64,21.64,0,0,0-3.328,10.171,27.933,27.933,0,0,0-.026,4.472,24.091,24.091,0,0,0,.945,5.253,20.01,20.01,0,0,0,6.725,10.074,19.3,19.3,0,0,0,9,4.01l.16.028a4.557,4.557,0,0,0,.783.089,2.093,2.093,0,0,0,.4-.037l1.218-.236-1.854-.43C258.816,285.541,253.566,277.682,253.361,267.837Z" transform="translate(0 -0.103)" fill="url(#linear-gradient-11)"/>
    <path id="Path_184" data-name="Path 184" d="M253.638,343.116a1.7,1.7,0,0,1-1.358.672,2.1,2.1,0,0,1,0-4.2,1.7,1.7,0,0,1,1.358.673l.147.2.84-.543-.179-.227a2.673,2.673,0,0,0-2.165-1.052,3.044,3.044,0,0,0,0,6.088,2.707,2.707,0,0,0,2.17-1.055l.193-.234-.862-.527Z" transform="translate(-0.004 -44.118)" fill="url(#linear-gradient-12)"/>
    <path id="Path_185" data-name="Path 185" d="M308.239,338.647a3.049,3.049,0,1,0,2.875,3.044A2.865,2.865,0,0,0,308.239,338.647Zm0,.946a2.112,2.112,0,1,1-1.863,2.1A1.884,1.884,0,0,1,308.239,339.593Z" transform="translate(-26.505 -44.118)" fill="url(#linear-gradient-13)"/>
    <path id="Path_186" data-name="Path 186" d="M367.074,342.832l-2.972-4.017h-.864v5.9h.987v-4.075l2.987,4.075h.848v-5.9h-.987Z" transform="translate(-53.857 -44.197)" fill="url(#linear-gradient-14)"/>
    <path id="Path_187" data-name="Path 187" d="M423.7,343.116a1.7,1.7,0,0,1-1.357.672,2.1,2.1,0,0,1,0-4.2,1.7,1.7,0,0,1,1.357.673l.147.2.84-.543-.179-.227a2.669,2.669,0,0,0-2.165-1.052,3.044,3.044,0,0,0,0,6.088,2.706,2.706,0,0,0,2.17-1.055l.193-.234-.862-.527Z" transform="translate(-80.379 -44.118)" fill="url(#linear-gradient-15)"/>
    <path id="Path_188" data-name="Path 188" d="M475.81,344.718h3.936v-.946H476.8v-1.6h2.892v-.946H476.8v-1.463h2.949v-.946H475.81Z" transform="translate(-107.06 -44.197)" fill="url(#linear-gradient-16)"/>
    <path id="Path_189" data-name="Path 189" d="M532.526,338.815h-2.279v5.9h.987v-2.232h1.292a1.836,1.836,0,1,0,0-3.67Zm-1.292.946h1.244a.889.889,0,1,1,0,1.778h-1.244Z" transform="translate(-132.788 -44.197)" fill="url(#linear-gradient-17)"/>
    <path id="Path_190" data-name="Path 190" d="M584.058,339.762h1.757v4.956h.995v-4.956h1.757v-.946h-4.508Z" transform="translate(-158.22 -44.197)" fill="url(#linear-gradient-18)"/>
  </g>
</svg>
